<svg width="160" height="48" xmlns="http://www.w3.org/2000/svg" xmlns:svg="http://www.w3.org/2000/svg">
  <defs>
   <clipPath id="clip0_12_482">
    <rect fill="white" height="36" id="svg_1" transform="translate(0 10)" width="22"/>
   </clipPath>
  </defs>
  <g class="layer">
   <g id="svg_2">
    <path d="m83.85,2.01c11.66,5.3 17.87,11.84 17.65,18.56l0,1.59l3.84,0.84c4.95,1.08 8.64,2.75 10.43,4.72c-1.56,-0.41 -3.17,-0.79 -4.88,-1.12l-10.24,-2.07l-1.82,4.17c-0.15,0.37 -0.37,0.73 -0.63,1.1l-28.71,0c-0.41,-0.47 -0.78,-0.95 -1.08,-1.43l-2.35,-3.77l-9.42,1.88c-1.56,0.31 -3.09,0.65 -4.58,1.04c1.82,-1.94 5.44,-3.61 10.28,-4.72l3.65,-0.83l0,-1.5c0.07,-6.68 6.37,-13.16 17.91,-18.46l-0.04,0zm0.04,-3.91c-0.6,0 -1.19,0.08 -1.64,0.21l-0.22,0.08c-15.38,6.08 -23.95,13.93 -24.02,22.08c-6.52,1.48 -11.36,3.74 -13.63,6.37c-2.31,2.62 -1.9,5.45 1.12,7.99c3.17,-2.47 8.45,-4.53 15.12,-5.88c0.67,1.02 1.56,2.03 2.68,3.01c0.15,0.19 0.45,0.35 0.89,0.47c0.41,0.12 0.97,0.19 1.49,0.19l37.02,0c0.78,0 1.53,-0.25 1.9,-0.65c1.08,-0.92 1.82,-1.9 2.23,-2.89c6.67,1.34 11.99,3.39 15.16,5.88c3.17,-2.53 3.69,-5.37 1.38,-8c-2.31,-2.65 -7.22,-4.9 -13.89,-6.36c0.26,-8.19 -8.23,-16.13 -23.76,-22.2c-0.26,-0.09 -0.52,-0.16 -0.86,-0.21c-0.3,-0.05 -0.67,-0.08 -1.01,-0.08l0.04,0z" fill="#4EA8DE" id="svg_3"/>
    <path d="m83.85,19.69c-2.05,0 -4.06,-0.21 -5.73,-0.61c-1.71,-0.4 -3.05,-0.98 -3.84,-1.64c-0.78,-0.67 -1.01,-1.4 -0.6,-2.11c0.37,-0.71 1.38,-1.36 2.79,-1.87c1.45,-0.52 3.31,-0.87 5.29,-1.02c2.01,-0.15 4.1,-0.08 6,0.2c1.9,0.27 3.54,0.73 4.69,1.34c1.15,0.6 1.75,1.3 1.79,2.03c0.04,0.47 -0.22,0.94 -0.67,1.36c-0.48,0.44 -1.23,0.84 -2.12,1.18c-0.93,0.35 -2.01,0.61 -3.24,0.8c-1.19,0.2 -2.53,0.29 -3.84,0.31c-0.19,0.01 -0.34,0.01 -0.52,0l0,0.04z" fill="#4EA8DE" id="svg_4"/>
    <path d="m98.3,34.97c-0.67,-0.01 -1.34,0.03 -1.97,0.11c-0.63,0.09 -1.19,0.21 -1.68,0.37c-0.48,0.17 -0.86,0.36 -1.12,0.57c-0.26,0.23 -0.41,0.45 -0.41,0.69l0,5.56c0,0.48 0.52,0.95 1.49,1.28c0.97,0.35 2.31,0.53 3.69,0.53c1.34,0 2.68,-0.19 3.65,-0.53c0.97,-0.33 1.53,-0.8 1.53,-1.28l0,-5.49c0,-0.23 -0.11,-0.47 -0.34,-0.68c-0.26,-0.23 -0.6,-0.43 -1.08,-0.59c-0.45,-0.17 -1.01,-0.31 -1.6,-0.4c-0.6,-0.09 -1.27,-0.15 -1.94,-0.15l-0.22,0z" fill="#5E60CE" id="svg_5"/>
    <path d="m69.48,34.97c-0.67,-0.01 -1.34,0.01 -1.97,0.09c-0.67,0.09 -1.23,0.21 -1.75,0.37c-0.48,0.16 -0.89,0.36 -1.15,0.59c-0.3,0.21 -0.45,0.45 -0.45,0.69l0,5.56c0,0.48 0.56,0.95 1.53,1.28c0.97,0.35 2.27,0.53 3.65,0.53c1.38,0 2.68,-0.19 3.65,-0.53c0.97,-0.33 1.53,-0.8 1.53,-1.28l0,-5.49c0,-0.23 -0.11,-0.47 -0.34,-0.68c-0.22,-0.23 -0.6,-0.43 -1.04,-0.59c-0.48,-0.17 -1.01,-0.31 -1.64,-0.4c-0.6,-0.09 -1.27,-0.15 -1.94,-0.15l-0.07,0z" fill="#5E60CE" id="svg_6"/>
    <path d="m83.48,34.97c-0.67,-0.01 -1.34,0.03 -1.94,0.12c-0.63,0.08 -1.19,0.21 -1.68,0.37c-0.48,0.16 -0.86,0.36 -1.12,0.57c-0.3,0.21 -0.41,0.44 -0.45,0.68l0,7.66c0,0.48 0.56,0.95 1.53,1.3c0.97,0.33 2.27,0.53 3.65,0.53c1.38,0 2.68,-0.2 3.65,-0.53c0.97,-0.35 1.53,-0.81 1.53,-1.3l0,-7.54c0.04,-0.24 -0.07,-0.47 -0.34,-0.69c-0.22,-0.21 -0.6,-0.41 -1.04,-0.59c-0.45,-0.17 -1.01,-0.31 -1.64,-0.4c-0.6,-0.09 -1.27,-0.15 -1.9,-0.15l-0.26,-0.04z" fill="#5E60CE" id="svg_7"/>
   </g>
  </g>
 </svg>